<svg id="Layer_35" enable-background="new 0 0 64 64" height="512" viewBox="0 0 64 64" width="512" xmlns="http://www.w3.org/2000/svg"><path d="m35.5 24h-5.21-17.29-3c-4.42 0-8 3.58-8 8v10c0 2.21 1.79 4 4 4h1v13c0 .83.34 1.58.88 2.12s1.29.88 2.12.88c1.66 0 3-1.34 3-3 0 .83.34 1.58.88 2.12s1.29.88 2.12.88c1.66 0 3-1.34 3-3v-19-9c0-1.1.9-2 2-2h14.5c.05 0 .09 0 .14-.01.63-.03 1.21-.3 1.63-.72.45-.45.73-1.08.73-1.77 0-1.38-1.12-2.5-2.5-2.5z" fill="#e6e9ed"/><circle cx="13" cy="17" fill="#e6e9ed" r="7"/><path d="m60 2v12h-12v-8h-8v-4z" fill="#ffeaa7"/><path d="m48 6v8h-20v-8h12z" fill="#e6e9ed"/><path d="m62 14v6h-36v-6h2 20 12z" fill="#d3a06c"/><path d="m26 20h36l-15 14v4h-6v-4l-5.36-5v-.01c.63-.03 1.21-.3 1.63-.72.45-.45.73-1.08.73-1.77 0-1.38-1.12-2.5-2.5-2.5h-5.21z" fill="#dfb28b"/><path d="m44 44c3.31 0 6 2.69 6 6s-2.69 6-6 6-6-2.69-6-6 2.69-6 6-6zm2 6c0-1.1-.9-2-2-2s-2 .9-2 2 .9 2 2 2 2-.9 2-2z" fill="#fcd770"/><path d="m47.68 40.71c.1.04.2.07.3.12l2.38-1.44 4.25 4.25-1.44 2.38c.05.1.08.2.12.3l2.71.68v6l-2.71.68c-.04.1-.07.2-.12.3l1.44 2.38-4.25 4.25-2.38-1.44c-.1.05-.2.08-.3.12l-.68 2.71h-6l-.68-2.71c-.1-.04-.2-.07-.3-.12l-2.38 1.44-4.25-4.25 1.44-2.38c-.05-.1-.08-.2-.12-.3l-2.71-.68v-6l2.71-.68c.04-.1.07-.2.12-.3l-1.44-2.38 4.25-4.25 2.38 1.44c.1-.05.2-.08.3-.12l.68-2.71h6zm2.32 9.29c0-3.31-2.69-6-6-6s-6 2.69-6 6 2.69 6 6 6 6-2.69 6-6z" fill="#ffc729"/><path d="m37 50c0 3.859 3.141 7 7 7s7-3.141 7-7-3.141-7-7-7-7 3.141-7 7zm12 0c0 2.757-2.243 5-5 5s-5-2.243-5-5 2.243-5 5-5 5 2.243 5 5z"/><path d="m41 50c0 1.654 1.346 3 3 3s3-1.346 3-3-1.346-3-3-3-3 1.346-3 3zm4 0c0 .552-.448 1-1 1s-1-.448-1-1 .448-1 1-1 1 .448 1 1z"/><path d="m43.731 29.317h2v2h-2z" transform="matrix(.731 -.683 .683 .731 -8.654 38.69)"/><path d="m46.655 26.589h2v2h-2z" transform="matrix(.732 -.682 .682 .732 -6.017 39.895)"/><path d="m49.58 23.859h2v2h-2z" transform="matrix(.731 -.683 .683 .731 -3.354 41.213)"/><path d="m63 20.435v-7.435h-2v-12h-22v4h-12v8h-2v7.435l2.749 2.565h-9.475c1.667-1.467 2.726-3.61 2.726-6 0-4.411-3.589-8-8-8s-8 3.589-8 8c0 2.518 1.172 4.765 2.997 6.233-4.001.914-6.997 4.494-6.997 8.767v10c0 2.757 2.243 5 5 5v12c0 2.206 1.794 4 4 4 1.201 0 2.266-.542 3-1.382.734.84 1.799 1.382 3 1.382 2.206 0 4-1.794 4-4v-28c0-.551.448-1 1-1h14.249l4.751 4.435v3.442l-.384 1.538-2.136-1.28-5.346 5.346 1.28 2.136-2.414.602v7.562l2.415.603-1.28 2.136 5.346 5.346 2.136-1.28.602 2.414h7.562l.603-2.415 2.136 1.28 5.346-5.346-1.28-2.136 2.414-.602v-7.562l-2.415-.603 1.28-2.136-5.346-5.346-2.136 1.28-.383-1.537v-3.442zm-22-17.435h18v10h-10v-8h-8zm-12 4h18v6h-18zm32 8v4h-34v-4zm-54 2c0-3.309 2.691-6 6-6s6 2.691 6 6-2.691 6-6 6-6-2.691-6-6zm11 14v28c0 1.103-.897 2-2 2s-2-.897-2-2v-19h-2v19c0 1.103-.897 2-2 2s-2-.897-2-2v-29h-2v15c-1.654 0-3-1.346-3-3v-10c0-3.86 3.141-7 7-7h25.5c.827 0 1.5.673 1.5 1.5s-.673 1.5-1.5 1.5h-14.5c-1.654 0-3 1.346-3 3zm19.5-1.635c.905-.633 1.5-1.679 1.5-2.865 0-1.93-1.57-3.5-3.5-3.5h-4.82l-2.143-2h30.926l-13.463 12.565v3.435h-4v-3.435zm12.709 11.287 3.139 3.139-1.296 2.159.496 1.219 2.452.612v4.438l-1.949.486-.534.202-.465 1.143 1.296 2.159-3.139 3.139-2.159-1.296-1.219.496-.612 2.452h-4.438l-.486-1.949-.202-.534-1.143-.465-2.159 1.296-3.139-3.139 1.296-2.159-.496-1.219-2.452-.612v-4.438l1.949-.486.534-.202.465-1.143-1.296-2.159 3.139-3.139 2.159 1.296 1.219-.496.612-2.452h4.438l.486 1.949.202.534 1.143.465z"/><path d="m31 9h2v2h-2z"/><path d="m35 9h10v2h-10z"/><path d="m51 5h6v2h-6z"/><path d="m51 9h6v2h-6z"/></svg>